<svg xmlns="http://www.w3.org/2000/svg" 
     width="64" height="64" viewBox="0 0 64 64">
  <defs>
    <linearGradient id="grad" x1="0%" y1="0%" x2="100%" y2="100%">
      <stop offset="0%" stop-color="#28D146" />
      <stop offset="35%" stop-color="#1A892E" />
      <stop offset="75%" stop-color="#007AB8" />
      <stop offset="100%" stop-color="#33BBFF" />
    </linearGradient>

    <filter id="blur" x="0" y="0">
      <feGaussianBlur in="SourceGraphic" stdDeviation="4" />
    </filter>

    <path id="bubble" d="M32 2C62 2 62 2 62 28 62 54 62 54 36 54 32 60 24 62 20 62 24 56 21 54 21 54 6 54 2 54 2 32 2 2 2 2 32 2Z"/>
    <mask id="mask"><use href="#bubble" fill="white"/></mask>

    <path id="1" d="M64 0M0 64M22 20 34 13V47"/>
    <path id="2" d="M64 0M0 64M22 20C22 10 42 10 42 20 42 32 22 32 22 43H46"/>
    <path id="3" d="M64 0M0 64M19 13 42 13 32 26Q42 28 42 36C42 46 22 46 22 36"/>
    <path id="4" d="M64 0M0 64M37 47V13H34L21 33V35H46"/>
    <path id="5" d="M64 0M0 64M43 13 23 13 22 27Q42 22 42 35C42 46 22 46 22 36"/>
    <path id="6" d="M64 0M0 64M40 13C36 12 33 12 28 15Q22 19 22 31C22 48 42 47 42 35 42 26 28 24 23 30"/>
    <path id="7" d="M64 0M0 64M20 14 43 14 27 46"/>
    <path id="8" d="M64 0M0 64M31 27C22 27 22 12 32 12S42 27 33 27A10 8.5 0 1131 27Z"/>
    <path id="9" d="M64 0M0 64M26 45Q42 40 42 21C42 9 22 9 22 21 22 32 36 32 41 27"/>
    <path id="X" d="M64 0M0 64M54 0M-10 64M16 44Q31 42 31 21C31 9 13 9 13 21 13 32 26 32 30 27M34 28h22M45 16v24"/>
    <path id="dev" d="M64 0M0 64M20 17 10 28 20 39M28 46 36 10M44 17 54 28 44 39"/>
  </defs>

<!-- BubbleBG (colored) -->
  <use href="#bubble" fill="url(#grad)"/>
  <use href="#bubble" fill="black" fill-opacity="0"/> <!-- 0.75 for no notification -->

<!-- Blurs (black) -->
  <use href="#bubble" stroke="black" stroke-linejoin="round" stroke-width="4" fill-opacity="0" filter="url(#blur)" mask="url(#mask)"/>
  <use href="#Xa" stroke="black" stroke-linejoin="round" stroke-width="9.2" fill-opacity="0" filter="url(#blur)" mask="url(#mask)"/>

<!-- Edges (white) -->
  <use href="#bubble" stroke="white" stroke-width="4" stroke-linejoin="round" fill-opacity="0"/>
  <use href="#Xa" stroke="white" stroke-linejoin="round" stroke-width="8.4" fill-opacity="0"/>
  
</svg>